# xmcd
# 
# Track frame offsets:
#     150
#     16885
#     34829
#     50330
#     63977
#     81133
#     99687
#     125656
#     143967
#     159463
# 
# Disc length: 2289
# 
# Revision: 1
# Processed by: cddbd v1.5.2PL0 Copyright (c) Steve Scherf et al.
# Submitted via: fre:ac v1.0.17
# 
DISCID=8208ef0a
DTITLE=Lene Marlin - Twist The Truth
DYEAR=2009
DGENRE=Pop
TTITLE0=Everything's Good
TTITLE1=Come Home
TTITLE2=Here We Are
TTITLE3=Story Of A Life
TTITLE4=You Could Have
TTITLE5=I'll Follow
TTITLE6=Learned From Mistakes
TTITLE7=Have I Ever Told You
TTITLE8=Do You Remember
TTITLE9=You Will Cry No More
EXTD=
EXTT0=
EXTT1=
EXTT2=
EXTT3=
EXTT4=
EXTT5=
EXTT6=
EXTT7=
EXTT8=
EXTT9=
PLAYORDER=
